<?xml version="1.0" encoding="UTF-8"?>
<svg id="Layer_2" data-name="Layer 2" xmlns="http://www.w3.org/2000/svg" viewBox="0 0 499.72 495.71">
  <defs>
    <style>
      .cls-1 {
        fill: #0c5438;
      }

      .cls-1, .cls-2 {
        stroke-width: 0px;
      }

      .cls-3 {
        fill: none;
        stroke: #fff;
        stroke-miterlimit: 10;
        stroke-width: 13px;
      }

      .cls-2 {
        fill: #1dbc84;
      }
    </style>
  </defs>
  <g id="Layer_1-2" data-name="Layer 1">
    <g>
      <g id="_Radial_Repeat_" data-name="&amp;lt;Radial Repeat&amp;gt;">
        <path class="cls-1" d="M263.06,375.62c-92.5,22.68-193.93-19.73-235.71-40.97-8.02-4.08-17.79-1.86-23.25,5.28-.09.12-.18.23-.27.35-6.95,9.08-4.16,22.21,5.87,27.68,16.26,8.87,75.58,43.78,167.66,47.86,24.24-.08,38.2-.86,63.49-8.31,12.81-3.19,35.54-12.59,49.84-21.56,23.5-14.74,41.71-36.06,51.46-58.27,2.36-5.37,2.85-8.89,2.62-8.59-23.92,31.48-54.37,47.98-81.71,56.54Z"/>
      </g>
      <g id="_Radial_Repeat_-2" data-name="&amp;lt;Radial Repeat&amp;gt;">
        <path class="cls-2" d="M120.09,263.06c-22.68-92.5,19.73-193.93,40.97-235.71,4.08-8.02,1.86-17.79-5.28-23.25-.12-.09-.23-.18-.35-.27-9.08-6.95-22.21-4.16-27.68,5.87-8.87,16.26-43.78,75.58-47.86,167.66.08,24.24.86,38.2,8.31,63.49,3.19,12.81,12.59,35.54,21.56,49.84,14.74,23.5,36.06,41.71,58.27,51.46,5.37,2.36,8.89,2.85,8.59,2.62-31.48-23.92-47.98-54.37-56.54-81.71Z"/>
      </g>
      <g id="_Radial_Repeat_-3" data-name="&amp;lt;Radial Repeat&amp;gt;">
        <path class="cls-1" d="M236.65,121.43c92.5-22.68,193.93,19.73,235.71,40.97,8.02,4.08,17.79,1.86,23.25-5.28.09-.12.18-.23.27-.35,6.95-9.08,4.16-22.21-5.87-27.68-16.26-8.87-75.58-43.78-167.66-47.86-24.24.08-38.2.86-63.49,8.31-12.81,3.19-35.54,12.59-49.84,21.56-23.5,14.74-41.71,36.06-51.46,58.27-2.36,5.37-2.85,8.89-2.62,8.59,23.92-31.48,54.37-47.98,81.71-56.54Z"/>
      </g>
      <g id="_Radial_Repeat_-4" data-name="&amp;lt;Radial Repeat&amp;gt;">
        <path class="cls-2" d="M375.62,232.64c22.68,92.5-19.73,193.93-40.97,235.71-4.08,8.02-1.86,17.79,5.28,23.25.12.09.23.18.35.27,9.08,6.95,22.21,4.16,27.68-5.87,8.87-16.26,43.78-75.58,47.86-167.66-.08-24.24-.86-38.2-8.31-63.49-3.19-12.81-12.59-35.54-21.56-49.84-14.74-23.5-36.06-41.71-58.27-51.46-5.37-2.36-8.89-2.85-8.59-2.62,31.48,23.92,47.98,54.37,56.54,81.71Z"/>
      </g>
    </g>
    <circle class="cls-3" cx="247.85" cy="247.85" r="34.58"/>
  </g>
</svg>