<?xml version="1.0" encoding="UTF-8"?>
<svg id="Layer_2" data-name="Layer 2" xmlns="http://www.w3.org/2000/svg" viewBox="0 0 512 512">
  <defs>
    <style>
      .cls-1 {
        fill: #0c5438;
      }

      .cls-1, .cls-2, .cls-3 {
        stroke-width: 0px;
      }

      .cls-4 {
        fill: none;
        stroke: #fff;
        stroke-miterlimit: 10;
        stroke-width: 13px;
      }

      .cls-2 {
        fill: #1dbc84;
      }

      .cls-3 {
        fill: #00130a;
      }
    </style>
  </defs>
  <g id="Layer_1-2" data-name="Layer 1">
    <rect class="cls-3" width="512" height="512"/>
    <g>
      <path class="cls-2" d="M338.86,56.34c8.88,0,15.52,8.12,13.83,16.83-12.9,66.61-95.88,99.75-131.94,124.73-39.18,27.15-48.86,85.83,18.23,120.87,1.28.67,1.3,2.49.04,3.2-7.22,4.07-20.32,11.21-23.71,13.06-.53.29-1.15.29-1.68.02-5.93-3.04-40.71-22.36-49.5-61.77-13.51-78.5,49.69-104.41,89.67-124.74,9.28-4.27,59.43-34.71,70.73-81.22,1.56-6.4,7.16-11,13.75-10.99.19,0,.38,0,.57,0Z"/>
      <path class="cls-1" d="M345.73,234.03c-9.25-39.3-43.37-57.32-49.35-60.3-.54-.27-1.17-.25-1.7.04-3.39,1.9-16.38,9.19-23.54,13.34-1.25.72-1.2,2.54.08,3.19,67.5,34.24,57.64,92.15,18.79,119.77-35.73,25.39-119.57,61.57-131.97,128.55-1.64,8.85,5.14,17.03,14.14,17.03h0c6.7,0,12.59-4.61,14.01-11.16,9.95-46.09,55.04-75.29,71.36-84.67,17.91-10.3,107.69-43.13,88.18-125.79Z"/>
      <path class="cls-1" d="M213.11,151.99c-25.12-15.97-46.67-45.37-52.29-79.21-1.43-8.61,5.39-16.4,14.11-16.34.29,0,.58,0,.87,0,6.67.04,12.31,4.75,13.78,11.25,7.54,33.38,32.91,59.34,50.42,68.64,1.31.69,1.27,2.58-.05,3.24-6.65,3.32-21.28,10.61-25.07,12.51-.57.28-1.24.25-1.78-.09Z"/>
      <path class="cls-2" d="M295.13,356.56c25.72,14.44,50.39,46.7,58.67,81.23,2.19,9.12-4.83,17.86-14.21,17.86h0c-6.53,0-12.25-4.35-14.02-10.65-9.56-34.08-38.31-62.58-56.47-71.29-1.33-.64-1.4-2.5-.12-3.24l24.34-13.9c.56-.32,1.24-.33,1.8-.02Z"/>
      <circle class="cls-4" cx="255.72" cy="253.72" r="29.69"/>
    </g>
  </g>
</svg>