<?xml version="1.0" encoding="UTF-8"?>
<svg id="Layer_2" data-name="Layer 2" xmlns="http://www.w3.org/2000/svg" viewBox="0 0 228.73 465.02">
  <defs>
    <style>
      .cls-1 {
        fill: #0c5438;
      }

      .cls-1, .cls-2 {
        stroke-width: 0px;
      }

      .cls-3 {
        fill: none;
        stroke: #fff;
        stroke-miterlimit: 10;
        stroke-width: 13px;
      }

      .cls-2 {
        fill: #1dbc84;
      }
    </style>
  </defs>
  <g id="Layer_1-2" data-name="Layer 1">
    <path class="cls-2" d="M210.86,0c10.34,0,18.07,9.45,16.1,19.6-15.03,77.57-111.66,116.17-153.65,145.26-45.63,31.62-56.9,99.95,21.23,140.76,1.49.78,1.51,2.9.05,3.72-8.41,4.74-23.66,13.06-27.61,15.21-.61.33-1.34.34-1.96.02-6.91-3.54-47.41-26.04-57.65-71.94-15.74-91.42,57.87-121.59,104.43-145.26,10.8-4.97,69.2-40.43,82.37-94.58C195.99,5.34,202.52,0,210.19,0c.22,0,.44,0,.67,0Z"/>
    <path class="cls-1" d="M218.86,206.92c-10.77-45.76-50.5-66.75-57.47-70.22-.63-.31-1.36-.29-1.98.05-3.95,2.21-19.07,10.7-27.41,15.53-1.45.84-1.4,2.96.09,3.72,78.61,39.88,67.13,107.32,21.88,139.47C112.37,325.05,14.73,367.18.29,445.18c-1.91,10.31,5.99,19.83,16.47,19.83h0c7.8,0,14.67-5.37,16.31-13,11.58-53.67,64.09-87.67,83.1-98.61,20.86-12,125.41-50.23,102.69-146.49Z"/>
    <path class="cls-1" d="M64.42,111.39C35.16,92.79,10.07,58.55,3.52,19.15,1.85,9.12,9.79.05,19.96.11c.34,0,.68,0,1.02,0,7.77.04,14.34,5.53,16.05,13.1,8.78,38.87,38.32,69.11,58.72,79.93,1.52.81,1.48,3-.06,3.77-7.74,3.86-24.78,12.36-29.2,14.56-.66.33-1.45.29-2.07-.11Z"/>
    <path class="cls-2" d="M159.93,349.62c29.95,16.82,58.69,54.39,68.32,94.6,2.54,10.62-5.63,20.8-16.55,20.8h0c-7.61,0-14.27-5.07-16.32-12.4-11.14-39.69-44.61-72.87-65.76-83.02-1.55-.75-1.63-2.92-.14-3.77l28.35-16.19c.65-.37,1.44-.38,2.09-.02Z"/>
    <circle class="cls-3" cx="114.04" cy="229.85" r="34.58"/>
  </g>
</svg>